<?xml version="1.0" standalone="no"?>
<!DOCTYPE svg PUBLIC "-//W3C//DTD SVG 20010904//EN"
 "http://www.w3.org/TR/2001/REC-SVG-20010904/DTD/svg10.dtd">
<svg version="1.0" xmlns="http://www.w3.org/2000/svg"
 width="587.000000pt" height="86.000000pt" viewBox="0 0 587.000000 86.000000"
 preserveAspectRatio="xMidYMid meet">

<g transform="translate(0.000000,86.000000) scale(0.100000,-0.100000)"
fill="#000000" stroke="none">
<path d="M2530 832 c-33 -34 -38 -66 -14 -100 22 -32 57 -43 94 -31 36 13 50
36 50 82 0 40 -23 64 -68 73 -26 5 -36 1 -62 -24z"/>
<path d="M739 813 c-24 -64 -209 -615 -209 -624 0 -6 31 -9 77 -7 l76 3 17 50
17 50 123 0 123 0 17 -50 17 -50 76 -3 c58 -2 77 0 76 10 0 7 -48 155 -107
328 l-107 315 -93 3 -92 3 -11 -28z m142 -268 c20 -63 34 -117 31 -120 -7 -7
-137 -7 -144 0 -6 6 64 235 72 235 3 0 21 -52 41 -115z"/>
<path d="M2790 510 l0 -330 185 0 185 0 0 25 0 25 -165 0 -165 0 0 130 0 130
150 0 c149 0 150 0 150 23 0 22 -1 22 -147 22 l-148 0 -3 128 -3 127 166 0
165 0 0 25 0 25 -185 0 -185 0 0 -330z"/>
<path d="M145 800 c8 -16 24 -34 35 -40 12 -7 100 -9 241 -8 l222 3 13 38 13
37 -270 0 -270 0 16 -30z"/>
<path d="M69 638 c4 -12 20 -32 35 -43 25 -18 45 -20 252 -23 l224 -3 9 23 c4
13 11 33 15 46 l7 22 -275 0 -275 0 8 -22z"/>
<path d="M1755 644 c-44 -16 -99 -64 -121 -105 -59 -115 -23 -265 80 -328 83
-52 223 -50 297 5 55 40 55 49 -3 82 -46 25 -56 28 -73 16 -52 -33 -144 -21
-173 23 l-14 23 165 0 165 0 5 28 c8 42 -11 123 -41 172 -53 86 -179 123 -287
84z m166 -133 c16 -16 29 -34 29 -40 0 -7 -35 -11 -100 -11 -112 0 -123 9 -69
54 44 37 101 36 140 -3z"/>
<path d="M2393 649 c-17 -5 -43 -23 -57 -40 l-26 -31 0 36 0 36 -70 0 -70 0 0
-235 0 -236 68 3 67 3 5 132 c6 153 15 172 92 182 l43 6 3 78 c3 83 4 83 -55
66z"/>
<path d="M3919 645 c-30 -10 -60 -29 -83 -55 -20 -22 -38 -40 -41 -40 -3 0 -5
23 -5 50 0 43 -3 50 -20 50 -20 0 -20 -7 -20 -325 0 -318 0 -325 20 -325 19 0
20 7 20 147 l0 148 32 -39 c43 -52 98 -76 178 -76 54 0 74 5 117 30 123 70
156 239 69 353 -61 81 -169 114 -267 82z m186 -63 c56 -39 85 -94 85 -161 0
-119 -79 -201 -192 -201 -110 0 -182 61 -203 171 -15 82 47 184 130 215 57 21
130 11 180 -24z"/>
<path d="M4515 651 c-43 -11 -71 -27 -94 -57 l-21 -27 0 42 c0 37 -2 41 -25
41 l-25 0 2 -232 c3 -225 4 -233 23 -233 19 0 20 7 22 150 2 83 5 160 8 172
10 42 64 93 106 99 33 6 39 10 39 30 0 13 -1 24 -2 23 -2 -1 -16 -4 -33 -8z"/>
<path d="M4749 645 c-132 -42 -197 -213 -130 -342 43 -84 112 -123 218 -123
76 0 133 21 172 64 23 25 24 28 8 43 -15 15 -18 15 -36 -9 -46 -58 -169 -78
-241 -39 -44 23 -88 77 -96 119 l-6 32 211 0 211 0 0 34 c0 45 -24 112 -56
153 -52 68 -163 98 -255 68z m148 -40 c21 -9 46 -23 56 -33 25 -22 57 -86 57
-112 0 -19 -5 -20 -185 -20 -183 0 -185 0 -185 22 0 43 47 105 102 132 59 30
103 33 155 11z"/>
<path d="M5235 649 c-48 -14 -86 -60 -92 -112 -8 -67 27 -101 137 -133 106
-30 134 -50 138 -96 3 -29 -2 -40 -28 -62 -55 -46 -174 -32 -214 25 -9 13 -21
19 -30 16 -21 -8 -20 -19 6 -52 30 -38 76 -55 150 -55 102 0 164 52 161 134
-3 58 -39 88 -150 121 -128 38 -160 81 -107 144 45 53 149 51 192 -4 13 -16
26 -23 36 -19 23 9 20 22 -12 54 -44 44 -119 59 -187 39z"/>
<path d="M5635 649 c-48 -14 -86 -60 -92 -112 -8 -67 27 -101 137 -133 106
-30 134 -50 138 -96 3 -29 -2 -40 -28 -62 -55 -46 -174 -32 -214 25 -9 13 -21
19 -30 16 -21 -8 -20 -19 6 -52 29 -38 76 -55 148 -55 109 0 165 48 162 138
-2 53 -42 85 -147 117 -130 39 -162 81 -109 144 45 53 149 51 192 -4 13 -16
26 -23 36 -19 20 8 20 14 0 43 -35 49 -126 72 -199 50z"/>
<path d="M1210 585 l0 -64 80 -3 80 -3 -85 -117 c-80 -111 -85 -121 -85 -168
l0 -50 183 2 182 3 3 62 3 62 -95 3 -94 3 89 122 c81 111 89 127 89 168 l0 45
-175 0 -175 0 0 -65z"/>
<path d="M2518 415 l3 -235 64 0 65 0 0 235 0 235 -67 0 -68 0 3 -235z"/>
<path d="M3317 548 c44 -57 83 -109 87 -116 4 -7 -24 -52 -77 -120 -106 -135
-104 -132 -74 -132 19 0 42 22 102 100 43 55 81 100 85 100 4 0 42 -45 84
-100 61 -80 82 -100 102 -100 31 0 34 -5 -75 134 -59 77 -81 113 -75 122 5 7
44 58 87 114 76 97 77 100 50 100 -24 -1 -39 -16 -98 -95 -38 -52 -72 -94 -75
-94 -3 0 -36 42 -75 94 -59 79 -74 94 -98 95 -28 0 -27 -2 50 -102z"/>
<path d="M0 495 c0 -20 33 -63 55 -73 18 -8 97 -12 250 -12 l223 0 15 45 16
45 -280 0 c-153 0 -279 -2 -279 -5z"/>
</g>
</svg>
